# xmcd
# 
# Track frame offsets:
#     150
#     20462
#     42222
# 
# Disc length: 830
# 
# Revision: 1
# Processed by: cddbd v1.5.2PL0 Copyright (c) Steve Scherf et al.
# Submitted via: BonkEnc v1.0
# 
DISCID=1a033c03
DTITLE=セピアン・ローゼズ - セピアン・ローゼズ／君がいたHoly Night
DYEAR=1992
DGENRE=J-POP
TTITLE0=君がいたHoly Night
TTITLE1=Jump
TTITLE2=君がいたHoly Night(カラオケ)
EXTD=YEAR: 1992
EXTT0=
EXTT1=
EXTT2=
PLAYORDER=
